<svg
          width="100%"
          height="100%"
          viewBox="270 0 170 160"
          fill="none"
          xmlns="http://www.w3.org/2000/svg"
        >
          <path
            d="M280.839 14.6317C274.557 19.0512 270.817 26.2593 270.817 33.9496V83.0697C270.817 93.8463 276.229 103.9 285.217 109.821L342.641 147.655C350.499 152.832 360.678 152.832 368.536 147.655L425.96 109.821C434.948 103.9 440.36 93.8463 440.36 83.0698V33.9496C440.36 26.2594 436.62 19.0512 430.338 14.6317L415.635 4.28764C406.826 -1.90906 394.946 -1.33884 386.769 5.67309L370.912 19.272C362.091 26.836 349.086 26.836 340.265 19.272L324.408 5.67308C316.231 -1.33884 304.351 -1.90906 295.542 4.28764L280.839 14.6317Z"
            fill="#FFD06D"
          />
        </svg>